<svg xmlns="http://www.w3.org/2000/svg" xmlns:xlink="http://www.w3.org/1999/xlink" width="65" height="65" version="1.1" viewBox="0 0 65 65"><title>ic_Howto</title><desc>Created with Sketch.</desc><g id="ic_Howto" fill="none" fill-rule="evenodd" stroke="none" stroke-width="1"><g id="Group-7" transform="translate(10.420000, 4.000000)"><g id="Page-1" transform="translate(0.092001, 0.000000)"><path id="Path-4" stroke="#323E48" stroke-width="1.84" d="M10.4879996,24.9550005 C4.46996566,28.2516672 1.67170714,32.0850006 2.09322408,36.4550007 C1.93989074,47.1883342 1.86322407,52.555001 1.86322407,52.555001 C13.9764079,52.555001 20.0329998,52.555001 20.0329998,52.555001 L19.9754998,50.0825009 C23.271867,47.6288681 24.5176255,44.3512931 23.7127753,40.2497761"/><path id="Stroke-7" stroke="#FF9E16" stroke-width="1.881" d="M15.9502751,39.6657034 C21.4565817,39.6657034 29.7160416,39.6657034 40.7286548,39.6657034 C41.7679604,39.6657034 42.6098707,38.8237931 42.6098707,37.7838252 L42.6098707,2.0374116 C42.6098707,0.998768471 41.7679604,0.156195728 40.7286548,0.156195728 L18.1520772,0.156195728 L10.6265513,7.68238402 L10.6265513,34.9620014"/><polyline id="Stroke-9" stroke="#FF9E16" stroke-width="1.881" points="12.621 8.623 18.265 8.623 18.265 2.978"/><path id="Stroke-11" stroke="#BCC0C4" stroke-width="1.881" d="M15.329591,18.0390055 L34.1430745,18.0390055"/><path id="Stroke-13" stroke="#BCC0C4" stroke-width="1.881" d="M15.329591,21.8018347 L26.618211,21.8018347"/><path id="Stroke-15" stroke="#BCC0C4" stroke-width="1.881" d="M15.329591,14.2761101 L34.1430745,14.2761101"/><path id="Fill-17" d="M17.5076283,27.67613 C15.3256828,29.8587379 6.80059538,38.1937165 6.80059538,38.1937165 L14.3135357,48.0084966 C14.3135357,48.0084966 17.4884187,44.1606153 15.3780124,39.448302 C15.3780124,39.448302 19.1762137,35.1970191 20.1062233,33.9086512 C22.1808599,30.8324658 19.6902361,25.4941846 17.5076283,27.67613"/><path id="Stroke-19" stroke="#323E48" stroke-width="1.881" d="M6.80086034,38.1936503 C6.80086034,38.1936503 15.3252854,29.8586716 17.5078932,27.6760638 C19.6898387,25.4941183 22.1811249,30.8323996 20.1058258,33.9085849 C19.1758163,35.1969529 15.3782774,39.4488982 15.3782774,39.4488982 C17.4880212,44.160549 14.3131382,48.0084304 14.3131382,48.0084304"/><polyline id="Stroke-21" stroke="#323E48" stroke-width="1.881" points=".278 59.429 .278 52.845 22.855 52.845 22.855 59.429"/><path id="Stroke-23" stroke="#323E48" stroke-width="1.881" d="M3.10042923,56.6076404 L5.92225304,56.6076404"/></g></g></g></svg>