<svg xmlns="http://www.w3.org/2000/svg" xmlns:xlink="http://www.w3.org/1999/xlink" width="65" height="65" version="1.1" viewBox="0 0 65 65"><title>ic_solutions</title><desc>Created with Sketch.</desc><g id="ic_solutions" fill="none" fill-rule="evenodd" stroke="none" stroke-width="1"><g id="Page-1" transform="translate(8.000000, 5.427091)"><polygon id="Stroke-1" stroke="#8B41AF" stroke-width="2.223" points="22.927 .342 29.19 6.61 14.215 21.588 20.085 27.461 25.956 21.591 33.165 28.802 42.27 19.697 48.532 25.96 48.532 .342"/><polygon id="Fill-3" points="24.872 37.111 28.893 33.09 24.872 29.07 20.852 33.09"/><polygon id="Stroke-4" stroke="#323E48" stroke-width="2.223" points="24.872 37.111 28.893 33.09 24.872 29.07 20.852 33.09"/><polygon id="Fill-5" points="10.343 33.543 14.29 29.596 10.343 25.649 6.396 29.596"/><polygon id="Stroke-6" stroke="#323E48" stroke-width="2.223" points="10.343 33.543 14.29 29.596 10.343 25.649 6.396 29.596"/><polygon id="Fill-7" points="17.306 44.718 21.253 40.771 17.306 36.824 13.359 40.771"/><polygon id="Stroke-8" stroke="#323E48" stroke-width="2.223" points="17.306 44.718 21.253 40.771 17.306 36.824 13.359 40.771"/><polygon id="Fill-12" points="4.256 44.012 8.163 40.105 4.256 36.199 .35 40.105"/><polygon id="Stroke-13" stroke="#323E48" stroke-width="2.223" points="4.256 44.012 8.163 40.105 4.256 36.199 .35 40.105"/><path id="Stroke-17" stroke="#BCC0C4" stroke-width="2.223" d="M37.5748338,36.0691861 L27.0597141,46.5835358"/><path id="Stroke-18" stroke="#BCC0C4" stroke-width="2.223" d="M24.4171511,49.2260988 L22.9302812,50.7137387"/><g id="Group-23" stroke="#BCC0C4" stroke-width="2.223" transform="translate(16.179999, 51.648057)"><path id="Stroke-19" d="M5.08269287,0.732500982 L3.59582291,2.22014095"/><path id="Stroke-21" d="M1.92823395,3.8869599 L0.441363989,5.37459987"/></g><path id="Stroke-24" stroke="#BCC0C4" stroke-width="2.223" d="M10.8263435,12.5067247 L0.311223745,23.0210744"/></g></g></svg>